<svg width="46" height="46" viewBox="0 0 46 46" fill="none" xmlns="http://www.w3.org/2000/svg">
    <rect width="46" height="46" rx="23" fill="#D2AD84"/>
    <path d="M32.9907 16.412C32.9994 16.3569 32.9994 16.3009 32.9907 16.2458C32.9919 16.2254 32.9919 16.2049 32.9907 16.1845C32.9401 16.1037 32.8738 16.0325 32.7953 15.9746L27.5209 11.1286C27.46 11.0779 27.3909 11.0366 27.3163 11.0061H27.2512C27.1957 10.998 27.1392 10.998 27.0837 11.0061H13.6977C13.524 11.0074 13.3569 11.0687 13.2282 11.1784C13.0995 11.2881 13.0183 11.4385 13 11.601V34.344C13.0024 34.5172 13.0767 34.6828 13.207 34.8053C13.3373 34.9279 13.5134 34.9977 13.6977 35H32.3023C32.4866 34.9977 32.6627 34.9279 32.793 34.8053C32.9233 34.6828 32.9976 34.5172 33 34.344V16.4557C33 16.4557 32.9907 16.4295 32.9907 16.412ZM31.6047 17.1118H27.0372C26.8522 17.1118 26.6747 17.0426 26.5439 16.9196C26.413 16.7966 26.3395 16.6297 26.3395 16.4557V12.257H26.7209L27.707 13.1317L30.5628 15.7559L31.5767 16.6831L31.6047 17.1118Z" fill="white"/>
</svg>