<svg width="40" height="41" viewBox="0 0 40 41" fill="none" xmlns="http://www.w3.org/2000/svg">
    <rect y="0.5" width="40" height="40" rx="20" fill="#FFFDF5"/>
    <g clip-path="url(#clip0_2706_20001)">
        <path d="M30.8909 31.2937V13.2831V13.0767C30.8909 12.5244 30.4431 12.0767 29.8909 12.0767H26.423C25.8707 12.0767 25.423 12.5244 25.423 13.0767V31.2937H24.4501V9.5C24.4501 8.94772 24.0024 8.5 23.4501 8.5H11.3155C10.6492 8.5 10.1091 9.0401 10.1091 9.70635V31.2937H9V32.5H32V31.2937H30.8909ZM27.1743 15.1667H29.3731V17.5582H27.1743V15.1667ZM27.1743 18.7646H29.3731V21.1561H27.1743V18.7646ZM27.1743 22.3624H29.3731V24.754H27.1743V22.3624ZM27.1743 26.0238H29.3731V28.4153H27.1743V26.0238ZM16.725 31.1667V25.1772H21.1227V31.1667H16.725ZM20.3443 10.5952H22.5431V12.9868H20.3443V10.5952ZM20.3443 14.172H22.5431V16.5635H20.3443V14.172ZM20.3443 17.791H22.5431V20.1825H20.3443V17.791ZM20.3443 21.4524H22.5431V23.8439H20.3443V21.4524ZM15.9467 10.5952H18.1455V12.9868H15.9467V10.5952ZM15.9467 14.172H18.1455V16.5635H15.9467V14.172ZM15.9467 17.791H18.1455V20.1825H15.9467V17.791ZM15.9467 21.4524H18.1455V23.8439H15.9467V21.4524ZM11.5296 10.5952H13.7284V12.9868H11.5296V10.5952ZM11.5296 14.172H13.7284V16.5635H11.5296V14.172ZM11.5296 17.791H13.7284V20.1825H11.5296V17.791ZM11.5296 21.4524H13.7284V23.8439H11.5296V21.4524Z" fill="#D2AD84"/>
    </g>
    <defs>
        <clipPath id="clip0_2706_20001">
            <rect width="24" height="24" fill="white" transform="translate(8 8.5)"/>
        </clipPath>
    </defs>
</svg>
