<svg xmlns="http://www.w3.org/2000/svg" width="22" height="22" viewBox="0 0 22 22" fill="none">
    <path d="M10.9989 0C17.0747 0 22 4.92531 22 11.0011C22 17.0758 17.0747 22 10.9989 22C4.92311 22 1.84221e-07 17.0758 1.84221e-07 11.0011C-0.00109971 4.92531 4.92311 0 10.9989 0ZM10.9989 1.64983C9.76241 1.63642 8.53555 1.86838 7.3893 2.33229C6.24306 2.79619 5.2002 3.48282 4.3211 4.35245C3.44199 5.22207 2.74408 6.25742 2.26778 7.39856C1.79147 8.53971 1.54622 9.76399 1.54622 11.0006C1.54622 12.2371 1.79147 13.4614 2.26778 14.6025C2.74408 15.7437 3.44199 16.779 4.3211 17.6487C5.2002 18.5183 6.24306 19.2049 7.3893 19.6688C8.53555 20.1327 9.76241 20.3647 10.9989 20.3513C13.4613 20.3246 15.8138 19.3276 17.5456 17.5769C19.2774 15.8262 20.2488 13.4631 20.2488 11.0006C20.2488 8.53801 19.2774 6.17486 17.5456 4.42416C15.8138 2.67346 13.4613 1.67654 10.9989 1.64983ZM10.9945 9.34906C11.194 9.34881 11.3869 9.42088 11.5374 9.55193C11.6878 9.68297 11.7857 9.86412 11.8128 10.0618L11.8205 10.174L11.8249 16.2256C11.8271 16.4361 11.7486 16.6394 11.6057 16.794C11.4628 16.9485 11.2662 17.0426 11.0562 17.057C10.8462 17.0713 10.6387 17.0048 10.4761 16.8711C10.3135 16.7374 10.2082 16.5466 10.1817 16.3378L10.1751 16.2267L10.1707 10.1751C10.1707 9.9563 10.2576 9.74648 10.4123 9.59178C10.567 9.43708 10.7768 9.35016 10.9956 9.35016M11.0011 5.50385C11.1482 5.49919 11.2948 5.52415 11.4321 5.57725C11.5695 5.63034 11.6947 5.71049 11.8004 5.81293C11.9062 5.91537 11.9902 6.03802 12.0477 6.17358C12.1051 6.30915 12.1347 6.45487 12.1347 6.60209C12.1347 6.74931 12.1051 6.89503 12.0477 7.03059C11.9902 7.16616 11.9062 7.2888 11.8004 7.39125C11.6947 7.49369 11.5695 7.57383 11.4321 7.62693C11.2948 7.68003 11.1482 7.70499 11.0011 7.70033C10.7158 7.6913 10.4453 7.57164 10.2467 7.36666C10.0481 7.16169 9.93707 6.88749 9.93707 6.60209C9.93707 6.31669 10.0481 6.04249 10.2467 5.83752C10.4453 5.63254 10.7158 5.51288 11.0011 5.50385Z" fill="#838383"/>
</svg>