<svg width="106" height="91" viewBox="0 0 106 91" fill="none" xmlns="http://www.w3.org/2000/svg">
    <g clip-path="url(#clip0_2606_32959)">
        <path d="M98.4478 65.6101C96.9807 65.6789 95.8612 65.4175 94.7639 66.4169C94.3708 66.7756 94.0952 67.1952 93.937 67.6719C93.7819 68.1512 93.7047 68.6596 93.7047 69.1961V69.9114C93.7047 70.2961 93.7391 70.6606 93.8052 71.0055C93.8714 71.3526 93.983 71.6743 94.147 71.9759C94.3073 72.2743 94.52 72.5441 94.784 72.7827C95.0485 73.0208 95.3697 73.225 95.7548 73.3943L93.5296 76.9089V77.6263H96.6506L99.0652 73.8424H102.677V77.6263H105.908V65.6074H98.4536L98.4478 65.6101ZM102.672 71.0055C102.109 71.077 101.578 71.123 101.075 71.1405C100.573 71.1574 100.165 71.1658 99.8551 71.1658C99.1372 71.1658 98.5801 71.1315 98.1865 71.0685C97.7934 71.0024 97.5034 70.905 97.3167 70.7728C97.1299 70.6437 97.0209 70.4744 96.9839 70.2701C96.949 70.0664 96.9289 69.8225 96.9289 69.5353C96.9289 69.3802 96.9405 69.2279 96.9664 69.0787C96.9892 68.9295 97.0786 68.7946 97.2246 68.6739C97.3743 68.5533 97.6124 68.4612 97.9341 68.3951C98.2584 68.329 98.7123 68.2946 99.298 68.2946C99.717 68.2946 100.234 68.3062 100.848 68.3322C101.466 68.3549 102.071 68.3983 102.669 68.4554V71.0024L102.672 71.0055ZM88.3754 69.9141V77.6295H91.6027V65.6101H88.3754L82.0784 73.3223V65.6101H78.8511V77.6295H82.0784L88.3754 69.9141ZM69.5595 77.6295H72.79V68.4814H77.4702V65.6101H64.8969V68.4814H69.5595V77.6295ZM63.5155 77.6295V65.6101H60.2855V70.2733H54.0086V65.6101H50.7783V77.6295H54.0086V73.1446H60.2855V77.6295H63.5155ZM49.4001 76.9115L44.0537 65.6101H40.8234L35.477 76.9115V77.6295H38.3828L39.405 75.2979H45.4492L46.4886 77.6295H49.3943V76.9115H49.4001ZM40.611 72.6076L42.44 68.5015L44.269 72.6076H40.6081H40.611ZM27.3426 74.563H29.1458C29.7602 74.563 30.3919 74.5799 31.038 74.5799H31.5404C32.4737 74.5799 33.2461 74.4651 33.8634 74.2382C34.4778 74.0117 34.966 73.7043 35.3249 73.3139C35.6838 72.9234 35.9365 72.4695 36.0858 71.9499C36.2351 71.4304 36.3097 70.8701 36.3097 70.2733V69.5554C36.3097 68.9697 36.2322 68.4126 36.0772 67.8872C35.9221 67.3618 35.6464 66.9021 35.2502 66.5148C34.05 65.3344 32.7005 65.6646 30.8599 65.6074C28.4566 65.6074 26.5128 65.6074 24.1095 65.6074V77.6263H27.3397V74.5598L27.3426 74.563ZM27.3426 68.4586C27.9399 68.3983 28.5485 68.3549 29.163 68.3322C29.7775 68.3089 30.2771 68.2946 30.6619 68.2946C31.2706 68.2946 31.7386 68.3406 32.0602 68.4295C32.3818 68.5189 32.623 68.6422 32.7751 68.7972C32.9302 68.9522 33.022 69.1416 33.0451 69.3628C33.068 69.5839 33.0795 69.8252 33.0795 70.0892C33.0795 70.3537 33.068 70.5918 33.0451 70.8071C33.022 71.0225 32.9273 71.2119 32.7665 71.3727C32.6057 71.5336 32.3502 71.66 32.0027 71.7489C31.6582 71.8378 31.1672 71.8838 30.5326 71.8838C29.9698 71.8838 29.4387 71.8753 28.9362 71.8579C28.4337 71.8409 27.9025 71.7949 27.3397 71.723V68.4586H27.3426ZM22.7313 76.9115L17.3849 65.6101H14.1575L8.81107 76.9115V77.6295H11.7169L12.739 75.2979H18.7832L19.8226 77.6295H22.7284V76.9115H22.7313ZM13.9421 72.6076L15.7711 68.5015L17.6002 72.6076H13.9421ZM10.8727 65.6127H0.09375V77.6321H3.32399V68.4845H10.8756V65.6127H10.8727Z" fill="#D7985C"/>
        <path d="M77.5435 44.069L54.3691 57.4462V43.4976L70.9798 33.9074V39.0528L59.991 45.3984V47.7443L73.1046 40.1755V22.1149L77.5435 19.5508V44.069Z" fill="url(#paint0_linear_2606_32959)"/>
        <path d="M28.6641 44.0924L51.8385 57.4697V43.521L35.2279 33.9308V39.0762L46.2136 45.4219V47.7677L33.1032 40.1989V22.1383L28.6641 19.5742V44.0924Z" fill="url(#paint1_linear_2606_32959)"/>
        <path d="M53.1719 0.0830078L70.7197 10.2129L70.8652 10.2998V30.8955L70.7197 30.9814L53.1719 41.1084L53.0293 41.1953L52.8828 41.1084L35.3359 30.9814L35.1895 30.8955V10.2998L35.3359 10.2129L52.8828 0.0830078L53.0293 0L53.1719 0.0830078ZM44.9121 6.53711L36.7949 11.2236V29.9707L44.9121 34.6562L53.0264 39.3418L69.2607 29.9707V11.2236L61.1436 6.53711L53.0264 1.85156L44.9121 6.53711Z" fill="url(#paint2_linear_2606_32959)"/>
        <path d="M54.7447 38.3397V26.7022L56.9239 24.9363V15.5615L58.1757 14.8379V7.04798L53.0273 4.07617V39.3418L58.1757 36.3699L54.7447 38.3397Z" fill="url(#paint3_linear_2606_32959)"/>
        <path d="M62.4627 26.8204L58.6523 23.5327V36.0947L61.8797 34.2341L63.1574 33.4962V33.4933L67.4989 30.9866V15.2805L62.4627 12.3633V26.8204Z" fill="url(#paint4_linear_2606_32959)"/>
        <path d="M48.4589 25.2662V15.6071L43.5059 12.7559V25.9209L46.4519 23.5348V35.5829L50.9541 38.1441V27.4197L48.4589 25.2662Z" fill="url(#paint5_linear_2606_32959)"/>
        <path d="M17.5547 89.1063V83.7383H18.8112V85.9197H21.5153V83.7383H22.7718V89.1063H21.5153V86.9852H18.8112V89.1063H17.5547Z" fill="#D7985C"/>
        <path d="M27.7128 89.1063V88.0206L27.6424 87.7894V85.8895C27.6424 85.5209 27.5319 85.2361 27.3107 85.0351C27.0896 84.8273 26.7545 84.7235 26.3055 84.7235C26.0039 84.7235 25.7057 84.7704 25.4108 84.8642C25.1226 84.958 24.878 85.0887 24.677 85.2562L24.1844 84.3415C24.4726 84.1203 24.8144 83.9561 25.2098 83.8489C25.6119 83.735 26.0274 83.678 26.4563 83.678C27.2336 83.678 27.8334 83.8657 28.2556 84.241C28.6845 84.6095 28.899 85.1825 28.899 85.9599V89.1063H27.7128ZM26.024 89.1766C25.6219 89.1766 25.2701 89.1096 24.9685 88.9756C24.6669 88.8349 24.4324 88.6439 24.2648 88.4026C24.104 88.1547 24.0236 87.8765 24.0236 87.5683C24.0236 87.2667 24.094 86.9953 24.2347 86.754C24.3821 86.5128 24.62 86.3218 24.9484 86.1811C25.2768 86.0403 25.7124 85.97 26.2552 85.97H27.8133V86.8043H26.3457C25.9168 86.8043 25.6286 86.8747 25.4812 87.0154C25.3337 87.1494 25.26 87.317 25.26 87.518C25.26 87.7459 25.3505 87.9268 25.5314 88.0608C25.7124 88.1949 25.9637 88.2619 26.2854 88.2619C26.5936 88.2619 26.8684 88.1915 27.1097 88.0508C27.3576 87.9101 27.5352 87.7023 27.6424 87.4275L27.8535 88.1815C27.7329 88.4964 27.5151 88.741 27.2001 88.9153C26.8919 89.0895 26.4998 89.1766 26.024 89.1766Z" fill="#D7985C"/>
        <path d="M36.6397 89.2068C36.0902 89.2068 35.5842 89.1163 35.1218 88.9354C34.6594 88.7544 34.2573 88.5031 33.9156 88.1815C33.5738 87.8531 33.3091 87.4711 33.1214 87.0355C32.9338 86.5932 32.84 86.1107 32.84 85.588C32.84 85.0652 32.9338 84.5861 33.1214 84.1505C33.3091 83.7082 33.5738 83.3262 33.9156 83.0045C34.2573 82.6761 34.6594 82.4215 35.1218 82.2405C35.5842 82.0596 36.0869 81.9691 36.6297 81.9691C37.1792 81.9691 37.6818 82.0596 38.1375 82.2405C38.5999 82.4215 39.002 82.6761 39.3438 83.0045C39.6856 83.3262 39.9503 83.7082 40.1379 84.1505C40.3256 84.5861 40.4194 85.0652 40.4194 85.588C40.4194 86.1107 40.3256 86.5932 40.1379 87.0355C39.9503 87.4778 39.6856 87.8598 39.3438 88.1815C39.002 88.5031 38.5999 88.7544 38.1375 88.9354C37.6818 89.1163 37.1826 89.2068 36.6397 89.2068ZM36.6297 88.0608C36.9849 88.0608 37.3132 88.0005 37.6148 87.8799C37.9164 87.7593 38.1777 87.5884 38.3989 87.3672C38.62 87.1394 38.7909 86.878 38.9116 86.5831C39.0389 86.2816 39.1026 85.9498 39.1026 85.588C39.1026 85.2261 39.0389 84.8977 38.9116 84.6028C38.7909 84.3013 38.62 84.0399 38.3989 83.8188C38.1777 83.5909 37.9164 83.4167 37.6148 83.296C37.3132 83.1754 36.9849 83.1151 36.6297 83.1151C36.2745 83.1151 35.9461 83.1754 35.6446 83.296C35.3497 83.4167 35.0883 83.5909 34.8605 83.8188C34.6393 84.0399 34.4651 84.3013 34.3378 84.6028C34.2171 84.8977 34.1568 85.2261 34.1568 85.588C34.1568 85.9431 34.2171 86.2715 34.3378 86.5731C34.4651 86.8747 34.6393 87.1394 34.8605 87.3672C35.0816 87.5884 35.343 87.7593 35.6446 87.8799C35.9461 88.0005 36.2745 88.0608 36.6297 88.0608Z" fill="#D7985C"/>
        <path d="M44.2868 89.2068C43.8445 89.2068 43.4491 89.1398 43.1006 89.0058C42.7521 88.8717 42.4506 88.6673 42.1959 88.3926C41.948 88.1111 41.757 87.7559 41.6229 87.327C41.4889 86.8981 41.4219 86.3888 41.4219 85.7991C41.4219 85.3702 41.4587 84.9781 41.5325 84.6229C41.6062 84.2678 41.7168 83.9494 41.8642 83.668C42.0116 83.3798 42.1959 83.1251 42.4171 82.904C42.6449 82.6828 42.9096 82.4985 43.2112 82.3511C43.5128 82.2037 43.8546 82.0898 44.2365 82.0093L46.7295 81.4766L46.9105 82.6024L44.6487 83.0648C44.5214 83.0916 44.3672 83.1318 44.1863 83.1855C44.012 83.2324 43.8311 83.3061 43.6435 83.4066C43.4625 83.5004 43.2916 83.6378 43.1308 83.8188C42.9767 83.993 42.8493 84.2208 42.7488 84.5023C42.655 84.7771 42.6081 85.1222 42.6081 85.5377C42.6081 85.665 42.6114 85.7622 42.6181 85.8292C42.6315 85.8895 42.6416 85.9566 42.6483 86.0303C42.6617 86.0973 42.6684 86.1978 42.6684 86.3318L42.1959 85.8393C42.33 85.4975 42.5142 85.206 42.7488 84.9647C42.9901 84.7168 43.2682 84.5291 43.5831 84.4018C43.9048 84.2678 44.2533 84.2007 44.6286 84.2007C45.1312 84.2007 45.5769 84.3046 45.9655 84.5124C46.3542 84.7201 46.6592 85.0116 46.8803 85.3869C47.1015 85.7622 47.212 86.1878 47.212 86.6636C47.212 87.1595 47.0914 87.5984 46.8501 87.9804C46.6089 88.3624 46.2671 88.664 45.8248 88.8851C45.3892 89.0996 44.8765 89.2068 44.2868 89.2068ZM44.3873 88.1915C44.6889 88.1915 44.9536 88.1279 45.1815 88.0005C45.416 87.8665 45.597 87.6856 45.7243 87.4577C45.8583 87.2298 45.9253 86.9752 45.9253 86.6937C45.9253 86.4123 45.8583 86.1676 45.7243 85.9599C45.597 85.7455 45.416 85.5746 45.1815 85.4472C44.9536 85.3199 44.6822 85.2562 44.3672 85.2562C44.0657 85.2562 43.7942 85.3166 43.553 85.4372C43.3184 85.5578 43.1341 85.7253 43.0001 85.9398C42.8728 86.1475 42.8091 86.3888 42.8091 86.6636C42.8091 86.945 42.8761 87.203 43.0102 87.4376C43.1442 87.6721 43.3285 87.8564 43.563 87.9905C43.8043 88.1245 44.0791 88.1915 44.3873 88.1915Z" fill="#D7985C"/>
        <path d="M51.4038 89.1766C50.9682 89.1766 50.5694 89.0761 50.2075 88.8751C49.8524 88.674 49.5675 88.3725 49.3531 87.9704C49.1453 87.5616 49.0415 87.0456 49.0415 86.4223C49.0415 85.7924 49.142 85.2763 49.343 84.8742C49.5508 84.4722 49.8323 84.1739 50.1874 83.9796C50.5426 83.7785 50.9481 83.678 51.4038 83.678C51.9332 83.678 52.3989 83.7919 52.801 84.0198C53.2098 84.2477 53.5315 84.566 53.7661 84.9748C54.0073 85.3836 54.128 85.8661 54.128 86.4223C54.128 86.9785 54.0073 87.4644 53.7661 87.8799C53.5315 88.2887 53.2098 88.607 52.801 88.8349C52.3989 89.0627 51.9332 89.1766 51.4038 89.1766ZM48.4283 91.0564V83.7383H49.6245V85.0049L49.5843 86.4324L49.6848 87.8598V91.0564H48.4283ZM51.263 88.101C51.5646 88.101 51.8327 88.034 52.0672 87.9C52.3085 87.766 52.4995 87.5716 52.6402 87.317C52.7809 87.0623 52.8513 86.7641 52.8513 86.4223C52.8513 86.0738 52.7809 85.7756 52.6402 85.5277C52.4995 85.273 52.3085 85.0786 52.0672 84.9446C51.8327 84.8106 51.5646 84.7436 51.263 84.7436C50.9615 84.7436 50.6901 84.8106 50.4488 84.9446C50.2075 85.0786 50.0165 85.273 49.8758 85.5277C49.7351 85.7756 49.6647 86.0738 49.6647 86.4223C49.6647 86.7641 49.7351 87.0623 49.8758 87.317C50.0165 87.5716 50.2075 87.766 50.4488 87.9C50.6901 88.034 50.9615 88.101 51.263 88.101Z" fill="#D7985C"/>
        <path d="M60.7967 89.1063V83.7383H62.0533V89.1063H60.7967ZM57.9921 85.5075C58.6824 85.5075 59.2051 85.6617 59.5603 85.97C59.9222 86.2782 60.1031 86.7138 60.1031 87.2768C60.1031 87.8598 59.9021 88.3155 59.5 88.6439C59.1046 88.9655 58.5417 89.123 57.8112 89.1163L55.3785 89.1063V83.7383H56.6351V85.4975L57.9921 85.5075ZM57.7006 88.1915C58.0692 88.1982 58.3507 88.1212 58.545 87.9603C58.7393 87.7995 58.8365 87.5649 58.8365 87.2567C58.8365 86.9484 58.7393 86.7272 58.545 86.5932C58.3574 86.4525 58.0759 86.3787 57.7006 86.372L56.6351 86.362V88.1815L57.7006 88.1915Z" fill="#D7985C"/>
        <path d="M63.7424 89.1063V83.7383H66.366C67.0161 83.7383 67.5254 83.859 67.894 84.1002C68.2693 84.3415 68.4569 84.6833 68.4569 85.1256C68.4569 85.5612 68.2827 85.9029 67.9342 86.1509C67.5857 86.3922 67.1233 86.5128 66.547 86.5128L66.6978 86.2012C67.3478 86.2012 67.8303 86.3218 68.1453 86.563C68.467 86.7976 68.6278 87.1427 68.6278 87.5984C68.6278 88.0742 68.4502 88.4462 68.095 88.7142C67.7398 88.9756 67.2004 89.1063 66.4766 89.1063H63.7424ZM64.9386 88.1915H66.3761C66.7179 88.1915 66.9759 88.1379 67.1501 88.0307C67.3244 87.9168 67.4115 87.7459 67.4115 87.518C67.4115 87.2768 67.3311 87.0992 67.1702 86.9852C67.0094 86.8713 66.7581 86.8143 66.4163 86.8143H64.9386V88.1915ZM64.9386 85.98H66.2555C66.5771 85.98 66.8184 85.923 66.9792 85.8091C67.1468 85.6885 67.2305 85.5209 67.2305 85.3065C67.2305 85.0853 67.1468 84.9212 66.9792 84.8139C66.8184 84.7067 66.5771 84.6531 66.2555 84.6531H64.9386V85.98Z" fill="#D7985C"/>
        <path d="M69.9662 89.1063V83.7383H71.2227V85.9197H73.9268V83.7383H75.1833V89.1063H73.9268V86.9852H71.2227V89.1063H69.9662Z" fill="#D7985C"/>
        <path d="M79.2598 89.1766C78.7103 89.1766 78.221 89.0594 77.7921 88.8248C77.3632 88.5836 77.0248 88.2552 76.7769 87.8397C76.5289 87.4242 76.4049 86.9517 76.4049 86.4223C76.4049 85.8862 76.5289 85.4137 76.7769 85.0049C77.0248 84.5894 77.3632 84.2644 77.7921 84.0299C78.221 83.7953 78.7103 83.678 79.2598 83.678C79.816 83.678 80.3086 83.7953 80.7375 84.0299C81.1731 84.2644 81.5115 84.5861 81.7528 84.9949C82.0007 85.4037 82.1247 85.8795 82.1247 86.4223C82.1247 86.9517 82.0007 87.4242 81.7528 87.8397C81.5115 88.2552 81.1731 88.5836 80.7375 88.8248C80.3086 89.0594 79.816 89.1766 79.2598 89.1766ZM79.2598 88.101C79.5681 88.101 79.8428 88.034 80.0841 87.9C80.3253 87.766 80.513 87.5716 80.647 87.317C80.7877 87.0623 80.8581 86.7641 80.8581 86.4223C80.8581 86.0738 80.7877 85.7756 80.647 85.5277C80.513 85.273 80.3253 85.0786 80.0841 84.9446C79.8428 84.8106 79.5714 84.7436 79.2698 84.7436C78.9616 84.7436 78.6868 84.8106 78.4455 84.9446C78.211 85.0786 78.0233 85.273 77.8826 85.5277C77.7419 85.7756 77.6715 86.0738 77.6715 86.4223C77.6715 86.7641 77.7419 87.0623 77.8826 87.317C78.0233 87.5716 78.211 87.766 78.4455 87.9C78.6868 88.034 78.9582 88.101 79.2598 88.101Z" fill="#D7985C"/>
        <path d="M83.366 89.1063V83.7383H84.6225V87.2768L87.588 83.7383H88.7339V89.1063H87.4774V85.5679L84.522 89.1063H83.366ZM85.9696 83.105C85.4334 83.105 85.0213 82.9811 84.7331 82.7331C84.4449 82.4784 84.2975 82.1099 84.2908 81.6273H85.1252C85.1319 81.8686 85.2056 82.0596 85.3463 82.2003C85.4937 82.3411 85.6981 82.4114 85.9595 82.4114C86.2142 82.4114 86.4152 82.3411 86.5626 82.2003C86.7168 82.0596 86.7972 81.8686 86.8039 81.6273H87.6583C87.6516 82.1099 87.5009 82.4784 87.206 82.7331C86.9178 82.9811 86.5057 83.105 85.9696 83.105Z" fill="#D7985C"/>
    </g>
    <defs>
        <linearGradient id="paint0_linear_2606_32959" x1="65.9573" y1="57.4462" x2="65.9573" y2="19.5508" gradientUnits="userSpaceOnUse">
            <stop offset="0.01" stop-color="#DCA56B"/>
            <stop offset="1" stop-color="#E9C691"/>
        </linearGradient>
        <linearGradient id="paint1_linear_2606_32959" x1="40.2523" y1="57.4697" x2="40.2523" y2="19.5742" gradientUnits="userSpaceOnUse">
            <stop offset="0.01" stop-color="#DCA56B"/>
            <stop offset="1" stop-color="#E9C691"/>
        </linearGradient>
        <linearGradient id="paint2_linear_2606_32959" x1="53.0288" y1="41.1953" x2="53.0288" y2="0" gradientUnits="userSpaceOnUse">
            <stop offset="0.01" stop-color="#DCA56B"/>
            <stop offset="1" stop-color="#E9C691"/>
        </linearGradient>
        <linearGradient id="paint3_linear_2606_32959" x1="55.6017" y1="39.3418" x2="55.6017" y2="4.07617" gradientUnits="userSpaceOnUse">
            <stop offset="0.01" stop-color="#DCA56B"/>
            <stop offset="1" stop-color="#E9C691"/>
        </linearGradient>
        <linearGradient id="paint4_linear_2606_32959" x1="63.076" y1="36.0947" x2="63.076" y2="12.3633" gradientUnits="userSpaceOnUse">
            <stop offset="0.01" stop-color="#DCA56B"/>
            <stop offset="1" stop-color="#E9C691"/>
        </linearGradient>
        <linearGradient id="paint5_linear_2606_32959" x1="47.2303" y1="38.1441" x2="47.2303" y2="12.7559" gradientUnits="userSpaceOnUse">
            <stop offset="0.01" stop-color="#DCA56B"/>
            <stop offset="1" stop-color="#E9C691"/>
        </linearGradient>
        <clipPath id="clip0_2606_32959">
            <rect width="105.814" height="91" fill="white" transform="translate(0.09375)"/>
        </clipPath>
    </defs>
</svg>
